<svg id="图层_1" data-name="图层 1" xmlns="http://www.w3.org/2000/svg" viewBox="0 0 349.07 150.39"><defs><style>.cls-1{fill:#030000;stroke:#fff;stroke-miterlimit:10;stroke-width:0.5px;}</style></defs><path class="cls-1" d="M286.76,223.36c25.8,0,40.75,12.37,40.75,37.34v74.7c0,25.18-14.95,37.34-40.75,37.34H246.87V223.36Zm-.65,116.09h2.38v-82.8h-2.38Z" transform="translate(-246.37 -222.86)"/><path class="cls-1" d="M286.76,373H246.62V223.11h40.14c13.08,0,23.25,3.15,30.22,9.37,7.15,6.39,10.78,15.88,10.78,28.22v74.7C327.76,360,313.58,373,286.76,373Zm-39.64-.5h39.64c26.5,0,40.5-12.82,40.5-37.09V260.7c0-24.27-14-37.09-40.5-37.09H247.12Zm41.62-32.79h-2.88V256.4h2.88Zm-2.38-.5h1.88V256.9h-1.88Z" transform="translate(-246.37 -222.86)"/><path class="cls-1" d="M464.18,223.36v56.12h2.6V223.36h39L484.56,332.2v40.54h-39V332.2L425.16,223.36Z" transform="translate(-246.37 -222.86)"/><path class="cls-1" d="M484.81,373H445.29V332.2L424.86,223.11h39.57v56.12h2.1V223.11h39.58L484.8,332.24Zm-39-.5h38.52V332.2L505.5,223.61H467v56.12h-3.1V223.61H425.46l20.32,108.54Z" transform="translate(-246.37 -222.86)"/><path class="cls-1" d="M555.93,275.23V255.72h-2.6v14.94c0,6,.43,7.06,17.12,16l5.85,3.11C591,297.64,595,307.18,595,331.45v2.7c0,24.69-15,38.59-41,38.59-25.8,0-39.67-13.48-39.67-38.59V320.87h39v19.05h2.6V325c0-6-.44-6.84-15.4-14.94l-6.93-3.73c-15.18-8.09-19.29-18.47-19.29-42.74v-1.87c0-25.11,14.09-38.38,39.67-38.38,26,0,41,13.9,41,38.38v13.49Z" transform="translate(-246.37 -222.86)"/><path class="cls-1" d="M554,373c-12.91,0-22.9-3.35-29.69-9.95s-10.23-16.32-10.23-28.89V320.62h39.52v19.05h2.1V325c0-5.91-.43-6.69-15.26-14.72l-6.94-3.73c-14.89-7.94-19.42-18-19.42-43v-1.87c0-12.52,3.47-22.21,10.32-28.79s16.75-9.84,29.6-9.84c26.19,0,41.22,14.08,41.22,38.63v13.74H555.68V256h-2.1v14.69c0,6,.55,7,17,15.76l5.85,3.11c14.56,7.79,18.78,17.19,18.78,41.92v2.7C595.2,358.84,580.17,373,554,373Zm-39.42-51.87v13c0,12.42,3.39,22,10.08,28.53s16.56,9.81,29.34,9.81c25.87,0,40.72-14,40.72-38.34v-2.7c0-24.49-4.16-33.8-18.52-41.48l-5.85-3.11c-16.61-8.88-17.25-10-17.25-16.2V255.47h3.1V275H594.7V261.74c0-24.23-14.85-38.13-40.72-38.13-12.71,0-22.56,3.26-29.26,9.7s-10.16,16.05-10.16,28.43v1.87c0,24.75,4.47,34.69,19.16,42.52l6.93,3.73c15,8.13,15.53,9.07,15.53,15.16v15.15h-3.1V321.12Z" transform="translate(-246.37 -222.86)"/><path class="cls-1" d="M407.12,223.36l9.54,149.38h-39V342H375v30.73H336l10.4-149.38Zm-29.48,85.36V272.67H375v36.05Z" transform="translate(-246.37 -222.86)"/><path class="cls-1" d="M416.92,373H377.39V342.26h-2.1V373H335.75l0-.26,10.42-149.62h61.16l0,.23Zm-39-.5h38.5l-9.5-148.88H346.65L336.29,372.49h38.5V341.76h3.1Zm0-63.52h-3.1V272.41h3.1Zm-2.6-.5h2.1V272.91h-2.1Z" transform="translate(-246.37 -222.86)"/></svg>