<svg id="图层_1" data-name="图层 1" xmlns="http://www.w3.org/2000/svg" viewBox="0 0 265.69 150.39"><defs><style>.cls-1{fill:#030000;stroke:#fff;stroke-miterlimit:10;stroke-width:0.5px;}</style></defs><path class="cls-1" d="M542.84,281.52V262h-2.6V277c0,6,.43,7.06,17.12,16l5.85,3.11c14.74,7.88,18.65,17.43,18.65,41.7v2.7c0,24.69-15,38.59-41,38.59-25.8,0-39.67-13.48-39.67-38.59V327.16h39v19h2.6v-14.9c0-6-.44-6.85-15.39-14.94l-6.94-3.73c-15.18-8.09-19.29-18.47-19.29-42.74V268c0-25.11,14.09-38.38,39.67-38.38,26,0,41,13.9,41,38.38v13.49Z" transform="translate(-316.66 -229.14)"/><path class="cls-1" d="M540.89,379.28c-12.91,0-22.9-3.35-29.69-9.95S501,353,501,340.44V326.91h39.52v19h2.1V331.31c0-5.92-.43-6.69-15.26-14.72l-6.94-3.73c-14.89-7.94-19.42-18-19.42-43V268c0-12.52,3.47-22.21,10.32-28.79s16.75-9.85,29.6-9.85c26.19,0,41.22,14.09,41.22,38.64v13.74H542.59V262.26h-2.1V277c0,6,.55,7,17,15.76l5.85,3.11c14.57,7.79,18.78,17.19,18.78,41.92v2.7C582.11,365.13,567.08,379.28,540.89,379.28Zm-39.42-51.87v13c0,12.42,3.39,22,10.08,28.53s16.56,9.81,29.34,9.81c25.87,0,40.72-14,40.72-38.34v-2.7c0-24.49-4.16-33.8-18.52-41.48l-5.85-3.11c-16.61-8.88-17.25-10-17.25-16.2V261.76h3.1v19.51h38.52V268c0-24.24-14.85-38.14-40.72-38.14-12.71,0-22.55,3.27-29.26,9.71S501.47,255.65,501.47,268v1.87c0,24.75,4.47,34.69,19.16,42.52l6.93,3.73c15,8.13,15.53,9.07,15.53,15.16v15.15H540v-19Z" transform="translate(-316.66 -229.14)"/><path class="cls-1" d="M397.8,229.65V379h-39v-60h-2.6v60h-39V229.65h39v56.12h2.6V229.65Z" transform="translate(-316.66 -229.14)"/><path class="cls-1" d="M398.05,379.28H358.53v-60h-2.1v60H316.91V229.39h39.52v56.13h2.1V229.39h39.52Zm-39-.5h38.52V229.89H359V286h-3.1V229.89H317.41V378.78h38.52v-60H359Z" transform="translate(-316.66 -229.14)"/><path class="cls-1" d="M447.84,229.65c27.64,0,43.66,12.9,43.66,40.23V271c0,25.17-22.48,36.23-22.48,36.23v2.58s23.69,14,23.69,37V379H450.9V325.25h-2.78V379H406.31V229.65Zm.28,62h2.78V262h-2.78Z" transform="translate(-316.66 -229.14)"/><path class="cls-1" d="M493,379.28H450.65V325.5h-2.28v53.78H406.06V229.39h41.78c28.73,0,43.91,14,43.91,40.49V271c0,24-20.57,35.38-22.48,36.38v2.29a60.56,60.56,0,0,1,11.78,9.84c5.43,5.85,11.91,15.33,11.91,27.3Zm-41.81-.5h41.31v-32c0-11.81-6.4-21.18-11.78-27A59.71,59.71,0,0,0,468.89,310l-.12-.07V307l.14-.07c.22-.11,22.34-11.28,22.34-36v-1.07c0-26.16-15-40-43.41-40H406.56V378.78h41.31V325h3.28Zm0-86.84h-3.28V261.75h3.28Zm-2.78-.5h2.28V262.25h-2.28Z" transform="translate(-316.66 -229.14)"/></svg>