<svg id="图层_1" data-name="图层 1" xmlns="http://www.w3.org/2000/svg" viewBox="0 0 328.41 150.39"><defs><style>.cls-1{fill:#030000;stroke:#fff;stroke-miterlimit:10;stroke-width:0.5px;}</style></defs><path class="cls-1" d="M524.07,229.65V379H484l-9.56-81.09h-2.08L480.85,379H443.43V229.65h40.12l10.39,81.94H496l-9.36-81.94Z" transform="translate(-285.3 -229.15)"/><path class="cls-1" d="M524.32,379.28H483.74l0-.22-9.53-80.87H472.6l8.52,81.09H443.18V229.4h40.59l0,.21,10.37,81.73h1.57l-9.35-81.94h37.94Zm-40.14-.5h39.64V229.9H486.94l9.36,81.94h-2.58l0-.21L483.33,229.9H443.68V378.78h36.89L472,297.69h2.58l0,.22Z" transform="translate(-285.3 -229.15)"/><path class="cls-1" d="M574.2,281.52V262h-2.6V277c0,6,.43,7.06,17.12,16l5.85,3.11c14.74,7.88,18.65,17.43,18.65,41.7v2.7c0,24.69-15,38.59-41,38.59-25.8,0-39.67-13.48-39.67-38.59V327.16h39v19h2.6v-14.9c0-6-.44-6.85-15.39-14.94l-6.94-3.73c-15.17-8.09-19.29-18.47-19.29-42.74V268c0-25.11,14.09-38.38,39.67-38.38,26,0,41,13.9,41,38.38v13.49Z" transform="translate(-285.3 -229.15)"/><path class="cls-1" d="M572.25,379.28c-12.91,0-22.9-3.35-29.69-9.95S532.33,353,532.33,340.44V326.91h39.52v19H574V331.31c0-5.91-.43-6.69-15.26-14.72l-6.94-3.73c-14.88-7.94-19.42-18-19.42-43V268c0-12.52,3.47-22.21,10.32-28.79s16.75-9.84,29.6-9.84c26.19,0,41.22,14.08,41.22,38.63v13.74H574V262.26h-2.1V277c0,6,.55,7,17,15.76l5.85,3.11c14.57,7.79,18.78,17.19,18.78,41.92v2.7C613.47,365.13,598.44,379.28,572.25,379.28Zm-39.42-51.87v13c0,12.42,3.39,22,10.08,28.53s16.57,9.81,29.34,9.81c25.88,0,40.72-14,40.72-38.34v-2.7c0-24.49-4.16-33.8-18.52-41.48l-5.84-3.11c-16.62-8.88-17.26-10-17.26-16.2V261.76h3.1v19.51H613V268c0-24.24-14.84-38.13-40.72-38.13-12.71,0-22.55,3.26-29.26,9.7S532.83,255.65,532.83,268v1.87c0,24.75,4.47,34.69,19.16,42.52l6.93,3.73c15,8.13,15.53,9.07,15.53,15.16v15.15h-3.1v-19Z" transform="translate(-285.3 -229.15)"/><path class="cls-1" d="M109.31.5h40.32a0,0,0,0,1,0,0V129.73a20.16,20.16,0,0,1-20.16,20.16h0a20.16,20.16,0,0,1-20.16-20.16V.5A0,0,0,0,1,109.31.5Z"/><path class="cls-1" d="M414.77,379.28a20.43,20.43,0,0,1-20.41-20.41V229.4h40.82V358.87A20.43,20.43,0,0,1,414.77,379.28ZM394.86,229.9v129a19.91,19.91,0,0,0,39.82,0v-129Z" transform="translate(-285.3 -229.15)"/><path class="cls-1" d="M334.89,229.65v81.94h2.56V229.65H386.1V379H350.89l4.48-81.09h-2.56L347.69,379H324.22l-5.13-81.09h-2.56L321,379H285.8V229.65Z" transform="translate(-285.3 -229.15)"/><path class="cls-1" d="M386.35,379.28H350.63l4.48-81.09h-2.06l-5.12,81.09H324v-.23l-5.11-80.86H316.8l4.48,81.09H285.55V229.4h49.59v81.94h2.06V229.4h49.15Zm-35.19-.5h34.69V229.9H337.7v81.94h-3.06V229.9H286.05V378.78h34.7l-4.48-81.09h3.06v.23l5.11,80.86h23l5.12-81.09h3.06Z" transform="translate(-285.3 -229.15)"/></svg>