<svg id="图层_1" data-name="图层 1" xmlns="http://www.w3.org/2000/svg" viewBox="0 0 345.61 150.39"><defs><style>.cls-1{fill:#030000;stroke:#fff;stroke-miterlimit:10;stroke-width:0.5px;}</style></defs><path class="cls-1" d="M582.8,281.52V262h-2.6V277c0,6,.43,7.06,17.12,16l5.85,3.11c14.74,7.88,18.65,17.43,18.65,41.7v2.7c0,24.69-15,38.59-41,38.59-25.8,0-39.67-13.48-39.67-38.59V327.16h39v19h2.6v-14.9c0-6-.44-6.85-15.39-14.94l-6.94-3.73c-15.17-8.09-19.29-18.47-19.29-42.74V268c0-25.11,14.09-38.38,39.67-38.38,26,0,41,13.9,41,38.38v13.49Z" transform="translate(-276.7 -229.15)"/><path class="cls-1" d="M580.85,379.28c-12.91,0-22.9-3.35-29.69-9.95S540.93,353,540.93,340.44V326.91h39.52v19h2.1V331.31c0-5.91-.43-6.69-15.26-14.72l-6.94-3.73c-14.88-7.94-19.42-18-19.42-43V268c0-12.52,3.47-22.21,10.32-28.79s16.75-9.84,29.6-9.84c26.19,0,41.22,14.08,41.22,38.63v13.74H582.55V262.26h-2.1V277c0,6,.55,7,17,15.76l5.85,3.11c14.57,7.79,18.78,17.19,18.78,41.92v2.7C622.07,365.13,607,379.28,580.85,379.28Zm-39.42-51.87v13c0,12.42,3.39,22,10.08,28.53s16.56,9.81,29.34,9.81c25.88,0,40.72-14,40.72-38.34v-2.7c0-24.49-4.16-33.8-18.52-41.48l-5.85-3.11c-16.61-8.88-17.25-10-17.25-16.2V261.76h3.1v19.51h38.52V268c0-24.24-14.84-38.13-40.72-38.13-12.71,0-22.55,3.26-29.26,9.7S541.43,255.65,541.43,268v1.87c0,24.75,4.47,34.69,19.16,42.52l6.93,3.73c15,8.13,15.53,9.07,15.53,15.16v15.15H580v-19Z" transform="translate(-276.7 -229.15)"/><path class="cls-1" d="M318.82,281.52V262h-2.6V277c0,6,.44,7.06,17.13,16L339.2,296c14.74,7.88,18.64,17.43,18.64,41.7v2.7c0,24.69-15,38.59-41,38.59-25.79,0-39.67-13.48-39.67-38.59V327.16h39v19h2.6v-14.9c0-6-.43-6.85-15.39-14.94l-6.93-3.73c-15.18-8.09-19.3-18.47-19.3-42.74V268c0-25.11,14.09-38.38,39.67-38.38,26,0,41,13.9,41,38.38v13.49Z" transform="translate(-276.7 -229.15)"/><path class="cls-1" d="M316.87,379.28c-12.9,0-22.89-3.35-29.68-9.95S277,353,277,340.44V326.91h39.52v19h2.1V331.31c0-5.92-.42-6.69-15.26-14.72l-6.93-3.73c-14.89-7.94-19.43-18-19.43-43V268c0-12.52,3.47-22.21,10.32-28.79s16.76-9.84,29.6-9.84c26.2,0,41.22,14.08,41.22,38.63v13.74H318.57V262.26h-2.1V277c0,6,.55,7,17,15.76l5.85,3.11c14.56,7.79,18.77,17.19,18.77,41.92v2.7C358.09,365.13,343.07,379.28,316.87,379.28Zm-39.42-51.87v13c0,12.42,3.4,22,10.09,28.53s16.56,9.81,29.33,9.81c25.88,0,40.72-14,40.72-38.34v-2.7c0-24.49-4.15-33.8-18.51-41.48l-5.85-3.11c-16.62-8.88-17.26-10-17.26-16.2V261.76h3.1v19.51h38.52V268c0-24.24-14.84-38.13-40.72-38.13-12.71,0-22.55,3.26-29.25,9.7S277.45,255.65,277.45,268v1.87c0,24.75,4.48,34.69,19.16,42.52l6.94,3.73c15,8.13,15.52,9.07,15.52,15.16v15.15H316v-19Z" transform="translate(-276.7 -229.15)"/><polygon class="cls-1" points="170.28 49.81 170.28 0.5 89.64 0.5 89.64 149.89 170.28 149.89 170.28 116.59 128.66 116.59 128.66 114.03 170.28 114.03 170.28 52.37 128.66 52.37 128.66 49.81 170.28 49.81"/><path class="cls-1" d="M447.24,379.28H366.1V229.4h81.14v49.8H405.61v2.07h41.63v62.16H405.62v2.06h41.62Zm-80.64-.5h80.14V346H405.12v-3.06h41.62V281.77H405.11V278.7h41.63V229.9H366.6Z" transform="translate(-276.7 -229.15)"/><path class="cls-1" d="M492.84,346.21h2.49v-39.8h37.34v34c0,24.69-14.31,38.59-39.21,38.59-24.48,0-38-13.48-38-38.59V268c0-25.1,13.49-38.38,38-38.38,24.9,0,39.21,13.9,39.21,38.38v34.23H495.33V262h-2.49Z" transform="translate(-276.7 -229.15)"/><path class="cls-1" d="M493.46,379.28c-24.65,0-38.22-13.79-38.22-38.84V268c0-12.52,3.32-22.2,9.88-28.78s16-9.85,28.34-9.85c25.08,0,39.46,14.08,39.46,38.63v34.48H495.08V262.26h-2V346h2v-39.8h37.84v34.28C532.92,365.12,518.54,379.28,493.46,379.28Zm0-149.38c-12.16,0-21.58,3.26-28,9.7s-9.73,16.05-9.73,28.43v72.41c0,12.4,3.27,22,9.73,28.54s15.85,9.8,28,9.8c24.76,0,39-14,39-38.34V306.66H495.58v39.8h-3v-84.7h3V302h36.84V268C532.42,243.8,518.22,229.9,493.46,229.9Z" transform="translate(-276.7 -229.15)"/></svg>