<svg id="图层_1" data-name="图层 1" xmlns="http://www.w3.org/2000/svg" viewBox="0 0 377.05 709.16"><defs><style>.cls-1{fill:#030000;stroke:#fff;stroke-miterlimit:10;stroke-width:0.5px;}</style></defs><path class="cls-1" d="M574.75,146.74V255.09H392.57v-79C392.57,56.64,462.39-1.06,583.9-1.06c119.44,0,185.22,54.69,185.22,177.18v9.11c0,110.34-53.66,157.9-98.17,161v12.16c44.51,0,98.17,52.63,98.17,163v9.11C769.12,653,703.34,707.6,583.9,707.6c-121.51,0-191.33-57.7-191.33-177.14V445.39H574.75V559.8H587V489c0-51.64-2.06-66.85-46.58-66.85H523.15V284.44h17.22c44.52,0,46.58-15.21,46.58-66.81V146.74Z" transform="translate(-392.32 1.31)"/></svg>