<svg id="图层_1" data-name="图层 1" xmlns="http://www.w3.org/2000/svg" viewBox="0 0 377.05 709.16"><defs><style>.cls-1{fill:#030000;stroke:#fff;stroke-miterlimit:10;stroke-width:0.5px;}</style></defs><path class="cls-1" d="M427,79c143.76,0,193.3,57.71,193.3,167.05V269.3c0,83-44.51,138.69-91.09,138.69v12.16c46.58,0,91.09,49.58,91.09,168v21.27c0,120.47-49.54,178.18-192.31,178.18-140.71,0-184.24-55.69-184.24-178.18V588.18c0-111.36,34.38-168,80.95-168V408c-46.57,0-80.95-55.68-80.95-138.69V246C243.7,133.66,287.23,79,427,79Zm-1.07,560.87h12.2V446.44h-12.2Zm0-219.68h12.2V226.76h-12.2Z" transform="translate(-243.45 -78.71)"/></svg>