<svg id="图层_1" data-name="图层 1" xmlns="http://www.w3.org/2000/svg" viewBox="0 0 1920 1080"><defs><style>.cls-1,.cls-2{fill:#fff;}.cls-2{stroke:#030000;stroke-miterlimit:10;stroke-width:0.5px;}</style></defs><rect x="-57" y="-40.4" width="2034" height="1160.79"/><path class="cls-1" d="M1976.5-39.9V1119.9H-56.5V-39.9h2033m1-1H-57.5V1120.9h2035V-40.9Z"/><path class="cls-2" d="M334.56,190c55.2,0,87.21,26.49,87.21,79.92V429.75c0,53.89-32,79.92-87.21,79.92H249.21V190Zm-1.4,248.43h5.11V261.24h-5.11Z"/><path class="cls-2" d="M629.33,190c-54.74,0-84.89,28.42-84.89,82.14v155c0,53.72,30.15,82.58,84.89,82.58,55.66,0,87.67-29.74,87.67-82.58V272.14C717,219.75,685,190,629.33,190Zm3.94,248.43h-5.1V261.24h5.1Z"/><path class="cls-2" d="M907.76,190V509.67H821.93L801.47,336.14H797l18.24,173.53H735.2V190H821l22.24,175.36h4.44L827.71,190Z"/><path class="cls-2" d="M1009.45,190V310.1H1015V190h83.5l-45.46,232.9v86.77h-83.5V422.9L926,190Z"/><path class="cls-2" d="M1205.78,301V259.26h-5.56v32c0,12.88.92,15.1,36.64,34.19l12.52,6.66c31.54,16.87,39.9,37.29,39.9,89.24v5.77c0,52.83-32,82.58-87.67,82.58-55.21,0-84.89-28.86-84.89-82.58V398.68h83.5v40.76h5.56V407.56c0-12.88-.93-14.66-32.94-32l-14.84-8c-32.47-17.32-41.28-39.52-41.28-91.47v-4c0-53.72,30.15-82.14,84.89-82.14,55.66,0,87.67,29.75,87.67,82.14V301Z"/><path class="cls-2" d="M1587.29,301V259.26h-5.56v32c0,12.88.93,15.1,36.65,34.19l12.52,6.66c31.54,16.87,39.89,37.29,39.89,89.24v5.77c0,52.83-32,82.58-87.67,82.58-55.2,0-84.89-28.86-84.89-82.58V398.68h83.5v40.76h5.56V407.56c0-12.88-.92-14.66-32.93-32l-14.84-8c-32.47-17.32-41.29-39.52-41.29-91.47v-4c0-53.72,30.16-82.14,84.89-82.14,55.67,0,87.67,29.75,87.67,82.14V301Z"/><path class="cls-2" d="M1391,190V439.44h5.57V190H1480V425.93c0,53.58-31.55,83.74-87.68,83.74-55.2,0-84.89-29.26-84.89-83.74V190Z"/><path class="cls-2" d="M440,190h86.28a0,0,0,0,1,0,0V466.53a43.14,43.14,0,0,1-43.14,43.14h0A43.14,43.14,0,0,1,440,466.53V190a0,0,0,0,1,0,0Z"/><path class="cls-2" d="M467.84,681.33H424.7V890H338.42V681.33H295.28v-111H467.84Z"/><path class="cls-2" d="M1230.87,681.33h-43.14V890h-86.28V681.33h-43.14v-111h172.56Z"/><path class="cls-2" d="M658.6,570.33V890H575.1V761.67h-5.57V890H486V570.33h83.5v120.1h5.57V570.33Z"/><path class="cls-2" d="M1019.7,570.33,1040.11,890H956.62V824.24h-5.57V890h-83.5l22.27-319.67ZM956.62,753V675.84h-5.57V753Z"/><path class="cls-2" d="M1337.94,570.33c59.14,0,93.44,27.62,93.44,86.09v2.3c0,53.86-48.11,77.52-48.11,77.52v5.52S1434,771.69,1434,821v69H1344.5V774.91h-6V890h-89.47V570.33Zm.6,132.76h6V639.56h-6Z"/><polygon class="cls-2" points="849.35 675.85 849.35 570.33 676.79 570.33 676.79 890 849.35 890 849.35 818.76 760.29 818.76 760.29 813.28 849.35 813.28 849.35 681.33 760.28 681.33 760.28 675.85 849.35 675.85"/><polygon class="cls-2" points="1624.72 675.85 1624.72 570.33 1452.16 570.33 1452.16 890 1624.72 890 1624.72 818.76 1535.66 818.76 1535.66 813.28 1624.72 813.28 1624.72 681.33 1535.65 681.33 1535.65 675.85 1624.72 675.85"/></svg>