<svg id="图层_1" data-name="图层 1" xmlns="http://www.w3.org/2000/svg" viewBox="0 0 1920 1080"><defs><style>.cls-1{fill:#fff;}.cls-2{fill:#030000;stroke:#fff;stroke-miterlimit:10;stroke-width:0.5px;}</style></defs><rect class="cls-1" x="-57" y="-40.4" width="2034" height="1160.79"/><path d="M1976.5-39.9V1119.9H-56.5V-39.9h2033m1-1H-57.5V1120.9h2035V-40.9Z"/><path class="cls-2" d="M334.56,190c55.2,0,87.21,26.49,87.21,79.91V429.78c0,53.89-32,79.91-87.21,79.91H249.21V190Zm-1.4,248.42h5.11V261.26h-5.11Z"/><path class="cls-2" d="M629.33,190c-54.74,0-84.89,28.41-84.89,82.14v155c0,53.72,30.15,82.58,84.89,82.58C685,509.75,717,480,717,427.17v-155C717,219.78,685,190,629.33,190Zm3.94,248.42h-5.1V261.26h5.1Z"/><path class="cls-2" d="M907.76,190V509.7H821.93L801.47,336.17H797L815.24,509.7h-80V190H821l22.24,175.35h4.44L827.71,190Z"/><path class="cls-2" d="M1009.45,190v120.1H1015V190h83.5L1053,422.92v86.77h-83.5V422.92L926,190Z"/><path class="cls-2" d="M1205.78,301V259.29h-5.56v32c0,12.88.92,15.1,36.64,34.19l12.52,6.66c31.54,16.87,39.9,37.29,39.9,89.24v5.76c0,52.84-32,82.59-87.67,82.59-55.21,0-84.89-28.86-84.89-82.59V398.7h83.5v40.77h5.56V407.58c0-12.88-.93-14.66-32.94-32l-14.84-8c-32.47-17.32-41.28-39.51-41.28-91.47v-4c0-53.72,30.15-82.14,84.89-82.14,55.66,0,87.67,29.75,87.67,82.14V301Z"/><path class="cls-2" d="M1587.29,301V259.29h-5.56v32c0,12.88.93,15.1,36.65,34.19l12.52,6.66c31.54,16.87,39.89,37.29,39.89,89.24v5.76c0,52.84-32,82.59-87.67,82.59-55.2,0-84.89-28.86-84.89-82.59V398.7h83.5v40.77h5.56V407.58c0-12.88-.92-14.66-32.93-32l-14.84-8c-32.47-17.32-41.29-39.51-41.29-91.47v-4c0-53.72,30.16-82.14,84.89-82.14,55.67,0,87.67,29.75,87.67,82.14V301Z"/><path class="cls-2" d="M1391,190V439.47h5.57V190H1480V426c0,53.59-31.55,83.74-87.68,83.74-55.2,0-84.89-29.26-84.89-83.74V190Z"/><path class="cls-2" d="M440,190h86.28V466.56a43.13,43.13,0,0,1-43.14,43.13h0A43.13,43.13,0,0,1,440,466.56V190Z"/><path class="cls-2" d="M467.84,681.36H424.7V890H338.42V681.36H295.28v-111H467.84Z"/><path class="cls-2" d="M1230.87,681.36h-43.14V890h-86.28V681.36h-43.14v-111h172.56Z"/><path class="cls-2" d="M658.6,570.36V890H575.1V761.69h-5.57V890H486V570.36h83.5V690.45h5.57V570.36Z"/><path class="cls-2" d="M1019.7,570.36,1040.11,890H956.62V824.26h-5.57V890h-83.5l22.27-319.68ZM956.62,753V675.87h-5.57V753Z"/><path class="cls-2" d="M1337.94,570.36c59.14,0,93.44,27.62,93.44,86.09v2.3c0,53.86-48.11,77.52-48.11,77.52v5.52S1434,771.72,1434,821v69h-89.5V774.93h-6V890H1249V570.36Zm.6,132.76h6V639.58h-6Z"/><polygon class="cls-2" points="849.36 675.88 849.36 570.36 676.8 570.36 676.8 890.02 849.36 890.02 849.36 818.78 760.3 818.78 760.3 813.3 849.36 813.3 849.36 681.36 760.29 681.36 760.29 675.88 849.36 675.88"/><polygon class="cls-2" points="1624.73 675.88 1624.73 570.36 1452.17 570.36 1452.17 890.02 1624.73 890.02 1624.73 818.78 1535.67 818.78 1535.67 813.3 1624.73 813.3 1624.73 681.36 1535.66 681.36 1535.66 675.88 1624.73 675.88"/></svg>