<svg id="图层_1" data-name="图层 1" xmlns="http://www.w3.org/2000/svg" viewBox="0 0 1920 1080"><defs><style>.cls-1{fill:#030000;}.cls-2{fill:#fff;}</style></defs><path class="cls-1" d="M98.77,440.33c34.42,0,54.38,16.52,54.38,49.84v99.66c0,33.6-20,49.84-54.38,49.84H45.55V440.33ZM97.9,595.24h3.18V484.76H97.9Z"/><path class="cls-2" d="M98.77,640H45.22V440H98.77c17.46,0,31,4.21,40.32,12.51,9.55,8.52,14.39,21.19,14.39,37.66v99.66C153.48,622.65,134.57,640,98.77,640Zm-52.89-.67H98.77c35.36,0,54.05-17.11,54.05-49.5V490.17c0-32.39-18.69-49.5-54-49.5H45.88Zm55.54-43.75H97.57V484.42h3.85Zm-3.18-.67h2.51V485.09H98.24Z"/><path class="cls-1" d="M282.58,440.33c-34.13,0-52.93,17.72-52.93,51.22v96.62c0,33.5,18.8,51.5,52.93,51.5,34.71,0,54.67-18.55,54.67-51.5V491.55C337.25,458.88,317.29,440.33,282.58,440.33ZM285,595.24h-3.18V484.76H285Z"/><path class="cls-2" d="M282.58,640c-34.35,0-53.27-18.41-53.27-51.83V491.55c0-16.71,4.64-29.63,13.77-38.41S265.44,440,282.58,440c34.95,0,55,18.79,55,51.55v96.62C337.58,621.11,317.53,640,282.58,640Zm0-199.33c-17,0-30.09,4.36-39,12.95S230,475,230,491.55v96.62c0,16.55,4.56,29.35,13.57,38.07s22.1,13.09,39,13.09c34.53,0,54.33-18.64,54.33-51.16V491.55C336.91,459.21,317.11,440.67,282.58,440.67Zm2.79,154.91h-3.85V484.42h3.85Zm-3.18-.67h2.51V485.09h-2.51Z"/><path class="cls-1" d="M456.2,440.33V639.67H402.68L389.92,531.46h-2.78l11.38,108.21H348.59V440.33h53.53L416,549.68h2.77L406.28,440.33Z"/><path class="cls-2" d="M456.53,640H402.38l0-.29L389.62,531.79h-2.11L398.89,640H348.26V440h54.15l0,.29,13.83,109.06h2.1L405.91,440h50.62ZM403,639.33h52.89V440.67H406.65L419.13,550h-3.44l0-.3-13.83-109h-52.9V639.33h49.22L386.77,531.12h3.44l0,.3Z"/><path class="cls-1" d="M519.61,440.33v74.9h3.47v-74.9h52.07L546.8,585.56v54.11H494.73V585.56L467.54,440.33Z"/><path class="cls-2" d="M547.13,640H494.4V585.56L467.14,440h52.8v74.89h2.81V440h52.8L547.13,585.63Zm-52.06-.67h51.4V585.56l28.27-144.89H523.41v74.89h-4.13V440.67H468L495.06,585.5Z"/><path class="cls-1" d="M642,509.55v-26h-3.47v19.94c0,8,.58,9.41,22.85,21.31l7.81,4.16c19.66,10.52,24.87,23.25,24.87,55.64v3.6c0,33-20,51.5-54.66,51.5-34.43,0-52.94-18-52.94-51.5V570.46h52.07v25.41H642V576c0-8-.58-9.14-20.54-19.93l-9.25-5c-20.25-10.8-25.75-24.64-25.75-57v-2.49c0-33.5,18.8-51.22,52.94-51.22,34.71,0,54.66,18.55,54.66,51.22v18Z"/><path class="cls-2" d="M639.43,640c-17.23,0-30.55-4.47-39.61-13.28s-13.66-21.78-13.66-38.55v-18h52.73v25.42h2.8V576c0-7.89-.56-8.93-20.36-19.64l-9.25-5c-19.86-10.59-25.92-24-25.92-57.33v-2.49c0-16.71,4.63-29.63,13.77-38.41S622.29,440,639.43,440c35,0,55,18.79,55,51.55v18.33H641.69v-26h-2.8v19.6c0,8,.74,9.29,22.68,21l7.8,4.15c19.44,10.4,25.06,23,25.06,55.94v3.6C694.43,621.11,674.38,640,639.43,640Zm-52.6-69.21v17.38c0,16.58,4.52,29.39,13.45,38.07s22.1,13.09,39.15,13.09c34.53,0,54.33-18.64,54.33-51.16v-3.6c0-32.68-5.54-45.1-24.7-55.35l-7.81-4.15c-22.17-11.85-23-13.36-23-21.61V483.19h4.13v26h51.4V491.55c0-32.34-19.8-50.88-54.33-50.88-17,0-30.09,4.36-39,12.95S586.83,475,586.83,491.55V494c0,33,6,46.29,25.57,56.74l9.25,5c20,10.84,20.71,12.1,20.71,20.23v20.22h-4.13V570.79Z"/><path class="cls-1" d="M879.92,509.55v-26h-3.46v19.94c0,8,.57,9.41,22.85,21.31l7.8,4.16C926.78,539.45,932,552.18,932,584.57v3.6c0,33-20,51.5-54.67,51.5-34.42,0-52.93-18-52.93-51.5V570.46h52.07v25.41h3.46V576c0-8-.57-9.14-20.53-19.93l-9.25-5c-20.25-10.8-25.75-24.64-25.75-57v-2.49c0-33.5,18.8-51.22,52.93-51.22,34.71,0,54.67,18.55,54.67,51.22v18Z"/><path class="cls-2" d="M877.32,640c-17.22,0-30.54-4.47-39.6-13.28s-13.66-21.78-13.66-38.55v-18h52.73v25.42h2.8V576c0-7.89-.56-8.93-20.36-19.64l-9.25-5c-19.87-10.59-25.92-24-25.92-57.33v-2.49c0-16.71,4.63-29.63,13.77-38.41S860.19,440,877.32,440c35,0,55,18.79,55,51.55v18.33H879.59v-26h-2.8v19.6c0,8,.74,9.29,22.67,21l7.81,4.15c19.44,10.4,25.06,23,25.06,55.94v3.6C932.33,621.11,912.28,640,877.32,640Zm-52.6-69.21v17.38c0,16.58,4.53,29.39,13.46,38.07s22.1,13.09,39.14,13.09c34.53,0,54.34-18.64,54.34-51.16v-3.6c0-32.68-5.54-45.1-24.7-55.35l-7.81-4.15c-22.17-11.85-23-13.36-23-21.61V483.19h4.14v26h51.4V491.55c0-32.34-19.81-50.88-54.34-50.88-17,0-30.09,4.36-39,12.95S824.72,475,824.72,491.55V494c0,33,6,46.29,25.57,56.74l9.26,5c20,10.84,20.71,12.1,20.71,20.23v20.22h-4.14V570.79Z"/><path class="cls-1" d="M757.51,440.33V595.87H761V440.33H813V587.45c0,33.41-19.67,52.22-54.66,52.22-34.43,0-52.94-18.25-52.94-52.22V440.33Z"/><path class="cls-2" d="M758.38,640c-17.23,0-30.55-4.53-39.61-13.47s-13.66-22.09-13.66-39.08V440h52.73V595.54h2.8V440h52.74V587.45c0,16.72-4.82,29.8-14.32,38.88S775.88,640,758.38,640ZM705.77,440.67V587.45c0,16.81,4.53,29.8,13.46,38.61s22.1,13.27,39.15,13.27c17.32,0,30.86-4.54,40.22-13.49s14.11-21.86,14.11-38.39V440.67h-51.4V596.21h-4.14V440.67Z"/><path class="cls-1" d="M164.5,440.33h53.8a0,0,0,0,1,0,0V612.77a26.9,26.9,0,0,1-26.9,26.9h0a26.9,26.9,0,0,1-26.9-26.9V440.33A0,0,0,0,1,164.5,440.33Z"/><path class="cls-2" d="M191.4,640a27.27,27.27,0,0,1-27.24-27.23V440h54.47V612.77A27.26,27.26,0,0,1,191.4,640ZM164.83,440.67v172.1a26.57,26.57,0,0,0,53.14,0V440.67Z"/><path class="cls-1" d="M1153.07,509.55h-26.91V639.67h-53.8V509.55h-26.9V440.33h107.61Z"/><path class="cls-2" d="M1126.5,640H1072V509.88h-26.9V440H1153.4v69.88h-26.9Zm-53.8-.67h53.13V509.21h26.9V440.67H1045.8v68.54h26.9Z"/><path class="cls-1" d="M1628.86,509.55H1602V639.67h-53.8V509.55h-26.9V440.33h107.6Z"/><path class="cls-2" d="M1602.29,640h-54.46V509.88h-26.91V440h108.27v69.88h-26.9Zm-53.8-.67h53.14V509.21h26.9V440.67H1521.59v68.54h26.9Z"/><path class="cls-1" d="M1272,440.33V639.67H1220v-80h-3.47v80h-52.07V440.33h52.07v74.9H1220v-74.9Z"/><path class="cls-2" d="M1272.35,640h-52.74V560h-2.8v80h-52.73V440h52.73v74.89h2.8V440h52.74Zm-52.07-.67h51.4V440.67h-51.4v74.89h-4.13V440.67h-51.4V639.33h51.4v-80h4.13Z"/><path class="cls-1" d="M1497.19,440.33l12.72,199.34h-52.06v-41h-3.48v41h-52.06l13.88-199.34Zm-39.34,113.91V506.13h-3.48v48.11Z"/><path class="cls-2" d="M1510.27,640h-52.76V599h-2.8v41H1402l0-.36L1415.88,440h81.62l0,.31Zm-52.09-.67h51.38l-12.69-198.66H1416.5l-13.83,198.66H1454v-41h4.14Zm0-84.76H1454V505.8h4.14Zm-3.47-.67h2.8V506.46h-2.8Z"/><path class="cls-1" d="M1695.63,440.33c36.87,0,58.26,17.23,58.26,53.69v1.43c0,33.59-30,48.34-30,48.34v3.44s31.61,18.66,31.61,49.38v43.06h-55.79V567.9H1696v71.77h-55.79V440.33Zm.37,82.79h3.71V483.5H1696Z"/><path class="cls-2" d="M1755.83,640h-56.45V568.23h-3.05V640h-56.46V440h55.75c38.34,0,58.6,18.68,58.6,54v1.43c0,32-27.45,47.2-30,48.54v3a81.43,81.43,0,0,1,15.72,13.13c7.25,7.81,15.89,20.46,15.89,36.44Zm-55.78-.67h55.12V596.61c0-15.75-8.54-28.25-15.71-36a80,80,0,0,0-15.74-13.12l-.16-.1v-3.84l.18-.09c.3-.15,29.82-15.06,29.82-48V494c0-34.91-20-53.35-57.94-53.35h-55.08V639.33h55.12V567.57h4.39Zm0-115.88h-4.39V483.17h4.39Zm-3.72-.66h3.05V483.84h-3.05Z"/><polygon class="cls-1" points="1390.96 506.13 1390.96 440.33 1283.36 440.33 1283.36 639.67 1390.96 639.67 1390.96 595.24 1335.43 595.24 1335.43 591.83 1390.96 591.83 1390.96 509.55 1335.42 509.55 1335.42 506.13 1390.96 506.13"/><path class="cls-2" d="M1391.3,640H1283V440H1391.3v66.46h-55.54v2.75h55.54v82.95h-55.54v2.75h55.54Zm-107.61-.67h106.94V595.58h-55.54v-4.09h55.54V509.88h-55.54V505.8h55.54V440.67H1283.69Z"/><polygon class="cls-1" points="1874.45 506.13 1874.45 440.33 1766.85 440.33 1766.85 639.67 1874.45 639.67 1874.45 595.24 1818.91 595.24 1818.91 591.83 1874.45 591.83 1874.45 509.55 1818.91 509.55 1818.91 506.13 1874.45 506.13"/><path class="cls-2" d="M1874.78,640H1766.51V440h108.27v66.46h-55.54v2.75h55.54v82.95h-55.53v2.75h55.53Zm-107.6-.67h106.94V595.58h-55.54v-4.09h55.54V509.88h-55.54V505.8h55.54V440.67H1767.18Z"/></svg>