<?xml version="1.0" encoding="utf-8"?>
<!-- Generator: Adobe Illustrator 25.4.1, SVG Export Plug-In . SVG Version: 6.00 Build 0)  -->
<svg version="1.1" id="图层_1" xmlns="http://www.w3.org/2000/svg" xmlns:xlink="http://www.w3.org/1999/xlink" x="0px" y="0px"
	 viewBox="0 0 263 212.1" style="enable-background:new 0 0 263 212.1;" xml:space="preserve">
<style type="text/css">
	.st0{stroke:#000000;stroke-width:2;stroke-miterlimit:10;}
	.st1{clip-path:url(#SVGID_00000168083329966208389120000014971470740264064684_);}
	.st2{fill:#FFFFFF;}
	.st3{stroke:#FFFFFF;stroke-miterlimit:10;}
</style>
<circle class="st0" cx="140.7" cy="106" r="106"/>
<g>
	<defs>
		<circle id="SVGID_1_" cx="140.7" cy="106" r="106"/>
	</defs>
	<clipPath id="SVGID_00000035530024841691235740000011744456418865009560_">
		<use xlink:href="#SVGID_1_"  style="overflow:visible;"/>
	</clipPath>
	<g style="clip-path:url(#SVGID_00000035530024841691235740000011744456418865009560_);">
		<path class="st2" d="M212.7,12.8c-7.5-2.6,5.7,19.3-2,13.6C161.4-9.5,42.2,57.4,34.7,97c-8.5,44.7-49,48.1-29.3,44.4
			c75.1-14.1,125,83.5,178.1,61.6c13-5.4,67-31.8,75.8-67.8C273.9,75.3,243.3,23.1,212.7,12.8z M251.6,136.2
			c-7.4,27-37.4,46.3-49.1,56.1c-9.5,7.9-26.1,8.4-41.1,4c-22.3-6.6-49.3-31.7-60.4-39.4c-5.6-3.9-4.8-5,1.5-2.4
			c44.2,18.2,94.9,42.6,99.2-14.8c0.3-4.6,3.3-3.1,7.7-4.2c13.2-3.1,47.6-16.5,29.9-68.6c-0.3-1,1.6-2.5,2.1-1.5
			C247.6,76.9,260,105.5,251.6,136.2z"/>
	</g>
</g>
<g>
	<path class="st3" d="M70.6,66.8c6.2,0,9.8,3,9.8,9v17.9c0,6-3.6,9-9.8,9H61V66.8H70.6z M70.5,94.7H71V74.8h-0.6V94.7z"/>
	<path class="st3" d="M103.6,66.8c-6.1,0-9.5,3.2-9.5,9.2v17.4c0,6,3.4,9.2,9.5,9.2s9.8-3.3,9.8-9.2V76
		C113.5,70.2,109.9,66.8,103.6,66.8z M104.1,94.7h-0.6V74.8h0.6L104.1,94.7z"/>
	<path class="st3" d="M134.8,66.8v35.8h-9.6l-2.3-19.4h-0.5l2,19.4h-9V66.8h9.6l2.5,19.6h0.5l-2.2-19.6H134.8z"/>
	<path class="st3" d="M146.2,66.8v13.5h0.6V66.8h9.4l-5.1,26.1v9.7h-9.4v-9.7l-4.9-26.1H146.2z"/>
	<path class="st3" d="M168.2,79.3v-4.7h-0.6v3.6c0,1.4,0.1,1.7,4.1,3.8l1.4,0.7c3.5,1.9,4.5,4.2,4.5,10v0.6c0,5.9-3.6,9.2-9.8,9.2
		s-9.5-3.2-9.5-9.2v-3.2h9.4v4.6h0.6v-3.6c0-1.4-0.1-1.6-3.7-3.6l-1.7-0.9c-3.6-1.9-4.6-4.4-4.6-10.2V76c0-6,3.4-9.2,9.5-9.2
		s9.8,3.3,9.8,9.2v3.2L168.2,79.3z"/>
	<path class="st3" d="M211,79.3v-4.7h-0.6v3.6c0,1.4,0.1,1.7,4.1,3.8l1.4,0.7c3.5,1.9,4.5,4.2,4.5,10v0.6c0,5.9-3.6,9.2-9.8,9.2
		s-9.5-3.2-9.5-9.2v-3.2h9.4v4.6h0.6v-3.6c0-1.4-0.1-1.6-3.7-3.6l-1.7-0.9c-3.6-1.9-4.6-4.4-4.6-10.2V76c0-6,3.4-9.2,9.5-9.2
		s9.8,3.3,9.8,9.2v3.2L211,79.3z"/>
	<path class="st3" d="M189,66.8v28h0.6v-28h9.4v26.4c0,6-3.5,9.4-9.8,9.4s-9.5-3.3-9.5-9.4V66.8H189z"/>
	<path class="st3" d="M82.4,66.8h9.7l0,0v31c0,2.7-2.2,4.8-4.8,4.8l0,0l0,0c-2.7,0-4.8-2.2-4.8-4.8l0,0L82.4,66.8L82.4,66.8z"/>
	<path class="st3" d="M85.5,121.9h-4.8v23.4H71v-23.4h-4.8v-12.4h19.3V121.9z"/>
	<path class="st3" d="M171,121.9h-4.8v23.4h-9.7v-23.4h-4.8v-12.4H171L171,121.9z"/>
	<path class="st3" d="M106.9,109.4v35.8h-9.4v-14.4h-0.6v14.4h-9.4v-35.8h9.4v13.5h0.6v-13.5H106.9z"/>
	<path class="st3" d="M147.4,109.4l2.3,35.8h-9.4v-7.4h-0.6v7.4h-9.4l2.5-35.8H147.4z M140.3,129.9v-8.6h-0.6v8.6H140.3z"/>
	<path class="st3" d="M183,109.4c6.6,0,10.5,3.1,10.5,9.6v0.3c0,6-5.4,8.7-5.4,8.7v0.6c0,0,5.7,3.4,5.7,8.9v7.7h-10v-12.9h-0.7v12.9
		h-10v-35.8H183z M183.1,124.3h0.7v-7.1h-0.7V124.3z"/>
	<polygon class="st3" points="128.3,121.3 128.3,109.4 109,109.4 109,145.2 128.3,145.2 128.3,137.3 118.3,137.3 118.3,136.6 
		128.3,136.6 128.3,121.9 118.3,121.9 118.3,121.3 	"/>
	<polygon class="st3" points="215.2,121.3 215.2,109.4 195.8,109.4 195.8,145.2 215.2,145.2 215.2,137.3 205.2,137.3 205.2,136.6 
		215.2,136.6 215.2,121.9 205.2,121.9 205.2,121.3 	"/>
</g>
</svg>
