<svg id="图层_1" data-name="图层 1" xmlns="http://www.w3.org/2000/svg" viewBox="0 0 972.72 503.65"><defs><style>.cls-1{fill:#030000;}.cls-2{fill:none;stroke:#fff;stroke-width:2px;}.cls-2,.cls-3{stroke-miterlimit:10;}.cls-3{fill:#fff;stroke:#050101;stroke-width:0.5px;}</style></defs><path class="cls-1" d="M903.15,194.79a15.05,15.05,0,0,0,0-20.69A26.56,26.56,0,0,1,895.92,156a26,26,0,0,1,3.54-13c4.84-8.37.27-18.68-9.32-22.57-31.48-12.79-53.37-41.2-53.37-74.2H5.05c0,33-21.9,61.41-53.37,74.2-9.59,3.89-14.16,14.2-9.32,22.57a26,26,0,0,1,3.54,13,26.56,26.56,0,0,1-7.23,18.06,15.05,15.05,0,0,0,0,20.69,26.56,26.56,0,0,1,7.23,18.06,26.51,26.51,0,0,1-7.23,18.05,15.05,15.05,0,0,0,0,20.69,26.56,26.56,0,0,1,7.23,18.06,26.56,26.56,0,0,1-7.23,18.06,15,15,0,0,0,0,20.68,26.56,26.56,0,0,1,7.23,18.06,26.56,26.56,0,0,1-7.23,18.06,15.05,15.05,0,0,0,0,20.69,26.51,26.51,0,0,1,7.23,18.05,26.56,26.56,0,0,1-7.23,18.06,15.05,15.05,0,0,0,0,20.69,26.55,26.55,0,0,1,7.23,18.05,26,26,0,0,1-3.54,13.06c-4.84,8.37-.27,18.68,9.32,22.57,31.47,12.79,53.37,41.2,53.37,74.2H836.77c0-33,21.89-61.41,53.37-74.2,9.59-3.89,14.16-14.2,9.32-22.57a26,26,0,0,1-3.54-13.06A26.55,26.55,0,0,1,903.15,422a15.05,15.05,0,0,0,0-20.69,26.17,26.17,0,0,1,0-36.12,15,15,0,0,0,0-20.68,26.17,26.17,0,0,1,0-36.12,15,15,0,0,0,0-20.68,26.17,26.17,0,0,1,0-36.12,15.05,15.05,0,0,0,0-20.69,26.16,26.16,0,0,1,0-36.11Z" transform="translate(65.45 -46.22)"/><rect class="cls-2" x="67.63" y="55.61" width="837.47" height="392.44" rx="74.12"/><path class="cls-3" d="M128.63,134.49c25.8,0,40.75,12.38,40.75,37.35v74.69c0,25.18-14.95,37.35-40.75,37.35H88.74V134.49ZM128,250.58h2.38v-82.8H128Z" transform="translate(65.45 -46.22)"/><path class="cls-3" d="M266.38,134.49c-25.58,0-39.67,13.28-39.67,38.38v72.42c0,25.1,14.09,38.59,39.67,38.59,26,0,41-13.9,41-38.59V172.87C307.35,148.39,292.39,134.49,266.38,134.49Zm1.84,116.09h-2.38v-82.8h2.38Z" transform="translate(65.45 -46.22)"/><path class="cls-3" d="M396.5,134.49V283.88H356.39l-9.56-81.1h-2.08l8.52,81.1H315.86V134.49H356l10.39,81.95h2.08l-9.35-81.95Z" transform="translate(65.45 -46.22)"/><path class="cls-3" d="M444,134.49v56.13h2.6V134.49h39L464.4,243.33v40.55h-39V243.33L405,134.49Z" transform="translate(65.45 -46.22)"/><path class="cls-3" d="M535.76,186.36v-19.5h-2.59V181.8c0,6,.43,7,17.12,16l5.85,3.11c14.74,7.89,18.65,17.43,18.65,41.71v2.7c0,24.69-15,38.59-41,38.59-25.8,0-39.68-13.49-39.68-38.59V232h39v19h2.59V236.16c0-6-.43-6.85-15.39-14.94l-6.93-3.74c-15.18-8.09-19.3-18.46-19.3-42.74v-1.87c0-25.1,14.1-38.38,39.68-38.38,26,0,41,13.9,41,38.38v13.49Z" transform="translate(65.45 -46.22)"/><path class="cls-3" d="M714.05,186.36v-19.5h-2.6V181.8c0,6,.44,7,17.13,16l5.85,3.11c14.74,7.89,18.64,17.43,18.64,41.71v2.7c0,24.69-15,38.59-41,38.59-25.79,0-39.67-13.49-39.67-38.59V232h39v19h2.6V236.16c0-6-.43-6.85-15.39-14.94l-6.93-3.74c-15.18-8.09-19.3-18.46-19.3-42.74v-1.87c0-25.1,14.09-38.38,39.67-38.38,26,0,41,13.9,41,38.38v13.49Z" transform="translate(65.45 -46.22)"/><path class="cls-3" d="M622.31,134.49V251.05h2.6V134.49h39V244.74c0,25-14.74,39.14-41,39.14-25.8,0-39.67-13.68-39.67-39.14V134.49Z" transform="translate(65.45 -46.22)"/><path class="cls-3" d="M243.34,88.27h40.32a0,0,0,0,1,0,0V217.49a20.16,20.16,0,0,1-20.16,20.16h0a20.16,20.16,0,0,1-20.16-20.16V88.27A0,0,0,0,1,243.34,88.27Z"/><path class="cls-3" d="M190.91,364.09H170.75v97.52H130.43V364.09H110.27V312.22h80.64Z" transform="translate(65.45 -46.22)"/><path class="cls-3" d="M547.49,364.09H527.33v97.52H487V364.09H466.85V312.22h80.64Z" transform="translate(65.45 -46.22)"/><path class="cls-3" d="M280.06,312.22V461.61H241v-60h-2.6v60h-39V312.22h39v56.13H241V312.22Z" transform="translate(65.45 -46.22)"/><path class="cls-3" d="M448.81,312.22l9.54,149.39h-39V430.88h-2.6v30.73h-39l10.4-149.39Zm-29.48,85.37V361.53h-2.6v36.06Z" transform="translate(65.45 -46.22)"/><path class="cls-3" d="M597.53,312.22c27.64,0,43.66,12.91,43.66,40.23v1.08c0,25.17-22.48,36.22-22.48,36.22v2.59s23.69,14,23.69,37v32.27H600.59V407.83h-2.78v53.78H556V312.22Zm.28,62h2.78V344.58h-2.78Z" transform="translate(65.45 -46.22)"/><polygon class="cls-3" points="434.65 315.31 434.65 266 354.01 266 354.01 415.39 434.65 415.39 434.65 382.1 393.03 382.1 393.03 379.53 434.65 379.53 434.65 317.87 393.03 317.87 393.03 315.31 434.65 315.31"/><polygon class="cls-3" points="796.99 315.31 796.99 266 716.35 266 716.35 415.39 796.99 415.39 796.99 382.1 755.37 382.1 755.37 379.53 796.99 379.53 796.99 317.87 755.37 317.87 755.37 315.31 796.99 315.31"/></svg>