<?xml version="1.0" encoding="utf-8"?>
<!-- Generator: Adobe Illustrator 25.4.1, SVG Export Plug-In . SVG Version: 6.00 Build 0)  -->
<svg version="1.1" id="图层_1" xmlns="http://www.w3.org/2000/svg" xmlns:xlink="http://www.w3.org/1999/xlink" x="0px" y="0px"
	 viewBox="0 0 85 85" style="enable-background:new 0 0 85 85;" xml:space="preserve">
<style type="text/css">
	.st0{fill:#FFFFFF;}
	.st1{fill:#FFFFFF;stroke:#000000;stroke-width:2;stroke-miterlimit:10;}
</style>
<path class="st0" d="M14.2,0h56.7C78.7,0,85,6.3,85,14.2v56.7C85,78.7,78.7,85,70.9,85H14.2C6.3,85,0,78.7,0,70.9V14.2
	C0,6.3,6.3,0,14.2,0z"/>
<path class="st1" d="M67.1,20.1L67.1,20.1c-4.7-2.2-9.5-3.7-14.5-4.5c-0.1,0-0.2,0-0.2,0.1c-0.7,1.2-1.3,2.4-1.8,3.7
	c-5.4-0.8-10.8-0.8-16.2,0c-0.5-1.3-1.1-2.5-1.8-3.7c0-0.1-0.1-0.1-0.2-0.1c-5,0.9-9.8,2.4-14.4,4.5c0,0-0.1,0-0.1,0.1
	C8.8,33.8,6.2,47.1,7.5,60.4c0,0.1,0,0.1,0.1,0.2c5.3,4,11.3,7,17.7,8.9c0.1,0,0.2,0,0.2-0.1c1.4-1.9,2.6-3.8,3.6-5.9
	c0-0.1,0-0.1,0-0.2c0-0.1-0.1-0.1-0.1-0.1c-1.9-0.7-3.8-1.6-5.5-2.6c-0.1,0-0.1-0.1-0.1-0.2c0-0.1,0-0.1,0.1-0.2l1.1-0.9
	c0.1,0,0.2,0,0.2,0c11.3,5.3,24.3,5.3,35.5,0c0.1,0,0.2,0,0.2,0l1.1,0.9c0.1,0.1,0.1,0.2,0.1,0.3c0,0,0,0-0.1,0.1
	c-1.8,1-3.6,1.9-5.5,2.6c-0.1,0-0.1,0.1-0.1,0.1c0,0.1,0,0.1,0,0.2c1.1,2,2.3,4,3.6,5.9c0.1,0.1,0.2,0.1,0.2,0.1
	c6.4-1.9,12.3-5,17.7-8.9c0.1,0,0.1-0.1,0.1-0.2C79,46.1,75.3,31.9,67.1,20.1L67.1,20.1z M30.8,52.3c-3.5,0-6.3-3.2-6.3-7.1
	s2.8-7.1,6.3-7.1s6.4,3.2,6.3,7.1S34.3,52.3,30.8,52.3z M54.3,52.3c-3.5,0-6.4-3.2-6.4-7.1s2.8-7.1,6.4-7.1s6.4,3.2,6.3,7.1
	S57.9,52.3,54.3,52.3z"/>
</svg>
