<?xml version="1.0" encoding="utf-8"?>
<!-- Generator: Adobe Illustrator 25.4.1, SVG Export Plug-In . SVG Version: 6.00 Build 0)  -->
<svg version="1.1" id="图层_1" xmlns="http://www.w3.org/2000/svg" xmlns:xlink="http://www.w3.org/1999/xlink" x="0px" y="0px"
	 viewBox="0 0 85 85" style="enable-background:new 0 0 85 85;" xml:space="preserve">
<style type="text/css">
	.st0{fill:#FFFFFF;}
	.st1{fill:#FFFFFF;stroke:#000000;stroke-width:2;stroke-miterlimit:10;}
</style>
<path class="st0" d="M14.2,0h56.7C78.7,0,85,6.3,85,14.2v56.7C85,78.7,78.7,85,70.9,85H14.2C6.3,85,0,78.7,0,70.9V14.2
	C0,6.3,6.3,0,14.2,0z"/>
<path class="st1" d="M73.7,22c-2.3,1.1-4.8,1.8-7.4,2.1c2.7-1.7,4.7-4.4,5.6-7.5c-2.5,1.6-5.2,2.7-8.1,3.3c-2.3-2.7-5.7-4.3-9.3-4.3
	c-7.1,0-12.8,6.1-12.8,13.6c0,1,0.1,2.1,0.3,3.1c-10.4-0.6-20-5.8-26.3-14.2c-1.2,2.1-1.8,4.5-1.7,6.9c0,4.5,2.1,8.7,5.7,11.3
	c-2-0.1-4-0.7-5.8-1.7v0.2C13.7,41,18,46.6,24.1,48c-1.1,0.3-2.2,0.5-3.4,0.5c-0.8,0-1.6-0.1-2.4-0.2c1.5,5.4,6.3,9.2,11.9,9.4
	c-4.4,3.7-10.1,5.8-15.9,5.8c-1,0-2.1,0-3.1-0.2c5.8,4,12.6,6.1,19.6,6.1c23.5,0,36.4-20.7,36.4-38.7c0-0.6,0-1.2,0-1.8
	C69.8,27.1,72,24.7,73.7,22L73.7,22z"/>
</svg>
